<svg width="25" height="25" viewBox="0 0 25 25" fill="none" xmlns="http://www.w3.org/2000/svg">
<path d="M15.625 17.7083H20.8334L19.3699 16.2449C18.973 15.848 18.75 15.3097 18.75 14.7484V11.4583C18.75 8.73705 17.0108 6.42197 14.5834 5.56397V5.20833C14.5834 4.05774 13.6506 3.125 12.5 3.125C11.3494 3.125 10.4167 4.05774 10.4167 5.20833V5.56397C7.9892 6.42197 6.25002 8.73705 6.25002 11.4583V14.7484C6.25002 15.3097 6.02705 15.848 5.63016 16.2449L4.16669 17.7083H9.37502M15.625 17.7083V18.75C15.625 20.4759 14.2259 21.875 12.5 21.875C10.7741 21.875 9.37502 20.4759 9.37502 18.75V17.7083M15.625 17.7083H9.37502" stroke="#3F3F46" stroke-width="1.2" stroke-linecap="round" stroke-linejoin="round"/>
</svg>
