<svg width="109" height="30" viewBox="0 0 109 30" fill="none" xmlns="http://www.w3.org/2000/svg">
<g clip-path="url(#clip0_1_194)">
<path d="M15.0497 0C12.0732 0 9.16348 0.875752 6.68857 2.51652C4.21367 4.15728 2.28467 6.48935 1.1456 9.21785C0.00652022 11.9463 -0.291513 14.9487 0.289182 17.8452C0.869882 20.7419 2.30324 23.4024 4.40797 25.4906C6.51271 27.5789 9.19436 29.0011 12.1137 29.5774C15.0331 30.1535 18.0591 29.8578 20.8091 28.7278C23.5591 27.5974 25.9093 25.6835 27.5632 23.228C29.2169 20.7724 30.0995 17.8854 30.0995 14.9321C30.0995 10.9719 28.514 7.17382 25.6915 4.37352C22.8691 1.5732 19.0412 0 15.0497 0ZM24.2945 17.1143C24.2945 17.413 22.9357 17.4556 22.9357 17.7543C22.9357 18.0529 24.2796 18.4582 24.2796 18.87C24.2796 19.3733 21.5103 19.448 21.5103 19.9515C21.5103 20.4891 23.6108 20.3226 23.6108 20.905C23.6108 21.5919 18.3349 21.2719 18.3349 21.9865C18.3349 22.2594 19.01 22.3726 19.855 22.4622C20.3194 22.5133 20.2182 22.7394 19.9539 22.8889C18.4768 23.783 16.78 24.2561 15.0497 24.2561C13.3195 24.2561 11.6227 23.783 10.1457 22.8889C9.88337 22.7289 9.78018 22.5028 10.2446 22.4622C11.0895 22.3726 11.7668 22.2489 11.7668 21.9865C11.7668 21.2719 6.48858 21.5919 6.48858 20.905C6.48858 20.3226 8.59127 20.4783 8.59127 19.9515C8.59127 19.448 5.81998 19.3733 5.81998 18.87C5.81998 18.4582 7.16587 18.0593 7.16587 17.7543C7.16587 17.4492 5.80492 17.4151 5.80492 17.1143C5.80492 16.8136 6.79822 16.6194 6.79822 16.4061C6.79822 16.003 5.64366 16.7368 5.64366 14.9321C5.64366 12.457 6.6347 10.0832 8.39867 8.333C10.1627 6.5828 12.5551 5.59954 15.0497 5.59954C17.5444 5.59954 19.9369 6.5828 21.7009 8.333C23.4649 10.0832 24.4558 12.457 24.4558 14.9321C24.4558 16.7368 23.3014 15.9987 23.3014 16.4061C23.3014 16.6194 24.2945 16.7922 24.2945 17.1143Z" fill="#4F46E5"/>
<path d="M43.1291 22.1813C44.0694 22.1813 44.9097 22.0239 45.6501 21.7091C46.4025 21.3943 47.037 20.9802 47.5542 20.4672C48.0712 19.9424 48.4415 19.3711 48.6648 18.753L46.5141 17.7559C46.2554 18.409 45.8324 18.9513 45.2447 19.3826C44.6687 19.8024 43.9636 20.0124 43.1291 20.0124C42.3064 20.0124 41.5837 19.82 40.9607 19.4352C40.3378 19.0504 39.8499 18.5198 39.4974 17.8434C39.1448 17.1554 38.9686 16.3566 38.9686 15.447C38.9686 14.5374 39.1448 13.7445 39.4974 13.0681C39.8499 12.3801 40.3378 11.8495 40.9607 11.4763C41.5837 11.0915 42.3064 10.8991 43.1291 10.8991C43.9636 10.8991 44.6687 11.1148 45.2447 11.5463C45.8324 11.9661 46.2554 12.5025 46.5141 13.1555L48.6648 12.1585C48.4415 11.5405 48.0712 10.9749 47.5542 10.4618C47.037 9.93705 46.4025 9.51723 45.6501 9.20238C44.9097 8.88753 44.0694 8.7301 43.1291 8.7301C42.189 8.7301 41.3192 8.8992 40.52 9.23736C39.7208 9.56388 39.0272 10.0303 38.4397 10.6367C37.8519 11.2314 37.3935 11.9428 37.0645 12.7707C36.7354 13.587 36.5708 14.4791 36.5708 15.447C36.5708 16.4149 36.7354 17.3128 37.0645 18.1408C37.3935 18.957 37.8519 19.6683 38.4397 20.2748C39.0272 20.8811 39.7208 21.3535 40.52 21.6917C41.3192 22.0181 42.189 22.1813 43.1291 22.1813Z" fill="black"/>
<path d="M50.4175 21.9715H52.7271V8.7301H50.4175V21.9715Z" fill="black"/>
<path d="M57.7683 22.1813C59.0142 22.1813 60.0131 21.7733 60.7653 20.957V21.9715H62.9514V15.6394C62.9514 14.9747 62.781 14.3858 62.4402 13.8727C62.0992 13.3596 61.6292 12.9631 61.0297 12.6833C60.4422 12.3917 59.7546 12.246 58.9671 12.246C58.0033 12.246 57.1453 12.4734 56.3931 12.9282C55.6409 13.383 55.1238 13.9835 54.8417 14.7298L56.7281 15.6394C56.9043 15.2079 57.1806 14.8639 57.5567 14.6074C57.9328 14.3392 58.3736 14.2051 58.8788 14.2051C59.4078 14.2051 59.8309 14.345 60.1482 14.6249C60.4773 14.8931 60.6419 15.2312 60.6419 15.6394V15.9542L57.7859 16.409C56.6576 16.5956 55.8231 16.9513 55.2824 17.476C54.7419 18.0008 54.4714 18.6596 54.4714 19.4526C54.4714 20.2922 54.7712 20.957 55.3707 21.4467C55.97 21.9365 56.7692 22.1813 57.7683 22.1813ZM56.8691 19.3652C56.8691 18.7005 57.3217 18.2807 58.2265 18.1058L60.6419 17.7035V18.0883C60.6419 18.7413 60.4127 19.2952 59.9543 19.75C59.5076 20.2048 58.9201 20.4322 58.1914 20.4322C57.8036 20.4322 57.4861 20.3389 57.2394 20.1524C56.9926 19.9541 56.8691 19.6917 56.8691 19.3652Z" fill="black"/>
<path d="M65.0859 21.9715H67.3954V16.6715C67.3954 15.9485 67.5953 15.3887 67.9949 14.9922C68.4063 14.5841 68.935 14.38 69.5816 14.38H70.4101V12.351H69.846C69.2583 12.351 68.7411 12.4559 68.2945 12.6658C67.848 12.8757 67.5012 13.2547 67.2543 13.8028V12.4559H65.0859V21.9715Z" fill="black"/>
<path d="M71.6798 11.3889H73.9893V8.94H71.6798V11.3889ZM71.6798 21.9715H73.9893V12.4559H71.6798V21.9715Z" fill="black"/>
<path d="M80.4939 22.0765C80.8817 22.0765 81.2638 22.0472 81.6399 21.9889V20.0124C81.4164 20.0474 81.2108 20.0648 81.0228 20.0648C80.4586 20.0648 80.0472 19.9366 79.7887 19.68C79.53 19.4235 79.4009 19.0561 79.4009 18.5779V14.5024H81.6046V12.4559H79.4009V10.2869H77.0914V11.0215C77.0914 11.488 76.962 11.8436 76.7035 12.0885C76.445 12.3334 76.0805 12.4559 75.6105 12.4559H75.4341V14.5024H77.0914V18.7005C77.0914 19.7616 77.3851 20.5896 77.9729 21.1842C78.5722 21.779 79.4126 22.0765 80.4939 22.0765Z" fill="black"/>
<path d="M84.5679 25.8372C85.4728 25.8372 86.225 25.5805 86.8245 25.0676C87.4355 24.5661 87.9234 23.8548 88.2878 22.9335L92.466 12.4559H89.9625L87.4943 19.0154L85.0086 12.4559H82.5229L86.3133 21.9715L86.1016 22.4787C85.9136 22.8752 85.6962 23.1959 85.4493 23.4407C85.2143 23.6857 84.8322 23.8081 84.3035 23.8081C84.1153 23.8081 83.9156 23.7905 83.704 23.7557C83.4925 23.7324 83.3044 23.6974 83.1399 23.6507V25.5748C83.3396 25.6681 83.5629 25.7322 83.8098 25.7672C84.0565 25.8139 84.3093 25.8372 84.5679 25.8372Z" fill="black"/>
<path d="M98.9879 22.1813C99.9986 22.1813 100.892 21.9715 101.668 21.5517C102.455 21.1318 103.072 20.5546 103.519 19.82C103.965 19.0854 104.189 18.2515 104.189 17.3186V8.94H101.791V17.1962C101.791 17.7443 101.668 18.234 101.421 18.6655C101.186 19.0854 100.857 19.4176 100.433 19.6626C100.022 19.8957 99.5402 20.0124 98.9879 20.0124C98.4472 20.0124 97.9653 19.8957 97.5421 19.6626C97.119 19.4176 96.7842 19.0854 96.5372 18.6655C96.3023 18.234 96.1847 17.7443 96.1847 17.1962V8.94H93.787V17.3186C93.787 18.2515 94.0105 19.0854 94.4571 19.82C94.9036 20.5546 95.5148 21.1318 96.2905 21.5517C97.078 21.9715 97.977 22.1813 98.9879 22.1813Z" fill="black"/>
<path d="M106.582 21.9715H108.98V8.94H106.582V21.9715Z" fill="black"/>
</g>
<defs>
<clipPath id="clip0_1_194">
<rect width="109" height="30" fill="white"/>
</clipPath>
</defs>
</svg>
